<svg xmlns="http://www.w3.org/2000/svg" viewBox="0 314.112 307.14 110.667"><g fill="#fff"><path d="M53.806 345.792c1.247-4.66 11.698-10.297 13.29-5.296 1.79 5.607-1.457 10.56-7.087 16.114-11.302 11.155-40.35 6.937-20.786-20.04 10.69-14.742 34.756-16.39 45.593-16.39 11.356 0 19.282 1.76 25.047 4.686-17.46 7.993-31.403 24.122-43.102 48.978-4.3.517-9.98 1.805-17.027 3.87-2.326.688-3.483 1.673-3.483 2.966 0 .86.645 1.288 1.933 1.288.35 0 1.206-.213 2.58-.644 4.903-1.547 9.503-2.536 13.808-2.967-4.82 11.256-9.597 19.803-14.327 25.646-7.398 9.2-15.533 13.8-24.396 13.8-3.016 0-6.154-.73-9.42-2.192-3.964-1.8-5.938-4-5.938-6.565 0-1.55 1.285-2.712 3.86-3.484 4.46-1.284 6.496-1.27 7.036-2.726.32-.858-5.49-15.058-5.49-15.058s-6.95.978-10.43 4.45c-2.816 2.812-3.984 6.6-3.984 10.9 0 6.194 2.84 11.004 8.506 14.446 4.727 2.75 10.446 4.128 17.15 4.128 13.93 0 26.225-4.432 36.885-13.294 9.975-8.173 17.323-19.144 22.047-32.917 10.746-1.03 20.29-3.915 28.63-8.65 10.575-6.02 15.864-13.727 15.864-23.103 0-8.263-4.113-14.877-10.964-19.522 3.094-.862 4.787-1.345 6.244-1.775 3.697-1.03 5.544-1.81 5.544-2.326 0-1.026-.69-1.55-2.064-1.55-3.52 0-7.528 1.212-13.634 3.632-5.334-2.84-15.743-6.75-31.646-6.592-41.9.42-56.63 28.392-55.94 38.94.3 4.55 1.77 14.967 15.97 15.585 4.938.216 19.73-1.09 26.9-18.898 2.084-5.17 2.484-15.694-7.83-18.268-5.766-1.435-19.344.614-22.048 11.023-.312 1.183 12.708 1.805 12.708 1.805zm34.115 25.6c3.773-11.094 6.99-19.387 9.65-24.896 5.14-10.49 9.68-16.698 15.166-19.447 3.236 2.494 4.382 5.516 4.382 9.902 0 8.255-2.83 15.758-8.49 22.508s-12.56 10.73-20.707 11.933z"/><path d="M54.275 345.912c.805-3.008 6.176-6.806 9.742-6.885 1.386-.034 2.273.51 2.622 1.61 1.508 4.73-.51 9.256-6.965 15.63-6.18 6.103-18.09 7.5-23.597 2.77-2.89-2.48-6.27-8.66 3.54-22.187 10.218-14.087 32.702-16.188 45.198-16.188 10.562 0 18.687 1.513 24.826 4.633l.015-.865c-17.3 7.922-31.48 24.017-43.333 49.207l.378-.273c-4.315.524-10.068 1.828-17.106 3.892-2.543.753-3.832 1.907-3.832 3.427 0 .663.314 1.772 2.416 1.772.26 0 .82-.067 2.724-.667 4.854-1.532 9.473-2.517 13.716-2.944l-.49-.67c-4.78 11.158-9.578 19.754-14.26 25.534-7.27 9.03-15.35 13.608-24.02 13.608-2.938 0-6.04-.72-9.227-2.146-3.746-1.708-5.648-3.768-5.648-6.128 0-1.304 1.18-2.318 3.514-3.02 1.228-.355 2.26-.602 3.16-.827 2.396-.588 3.712-.903 4.19-2.195.315-.854-2.816-8.848-5.502-15.402l-.142-.348-.364.052c-.296.04-7.157 1.042-10.7 4.588C2.385 394.627 1 398.407 1 403.126c0 6.345 2.943 11.342 8.738 14.86 4.787 2.786 10.638 4.194 17.402 4.194 13.98 0 26.497-4.514 37.19-13.41 9.997-8.192 17.466-19.335 22.196-33.126l-.408.318c10.762-1.034 20.46-3.963 28.82-8.71 10.69-6.082 16.105-13.996 16.105-23.52 0-8.077-3.862-14.97-11.174-19.924l-.143.865 6.255-1.78c5.442-1.52 5.892-2.183 5.892-2.786 0-.756-.33-2.026-2.547-2.026-3.806 0-8.105 1.398-13.813 3.665l.404.022c-4.795-2.558-15.31-6.813-31.883-6.645-24.83.244-38.984 9.945-46.483 18.036-7.32 7.892-10.264 16.44-9.938 21.406.675 10.2 6.203 15.597 16.433 16.04 3.225.134 19.687-.136 27.365-19.197 1.408-3.495 1.892-8.85-.198-12.953-1.543-3.03-4.222-5.034-7.96-5.967-6.446-1.61-19.9.88-22.63 11.368-.054.195-.01.39.11.558.844 1.146 9.402 1.67 13.043 1.84l.386.02.112-.36zm-12.713-1.802c2.532-9.74 15.507-12.162 21.462-10.675 3.46.858 5.93 2.7 7.338 5.465 1.952 3.832 1.487 8.866.165 12.16-7.252 17.993-22.07 18.776-26.433 18.588-9.66-.42-14.874-5.517-15.51-15.14-.313-4.757 2.56-13.01 9.682-20.688 7.375-7.952 21.3-17.484 45.79-17.732 16.354-.165 26.703 4.023 31.415 6.533l.195.106.214-.08c5.6-2.224 9.805-3.6 13.457-3.6 1.584 0 1.584.724 1.584 1.068 0-.056.017-.09.02-.098-.067.102-.625.678-5.214 1.96-.007 0-6.25 1.774-6.25 1.774l-.994.28c-.003 0 .85.582.85.582 7.035 4.768 10.755 11.383 10.755 19.122 0 9.154-5.255 16.784-15.615 22.687-8.24 4.68-17.808 7.57-28.438 8.59l-.307.03-.102.288c-4.675 13.616-12.046 24.62-21.904 32.696-10.52 8.75-22.83 13.188-36.575 13.188-6.59 0-12.278-1.367-16.908-4.06-5.483-3.327-8.27-8.05-8.27-14.032 0-4.45 1.295-8.004 3.846-10.555 3.323-3.323 10.088-4.308 10.15-4.315h.027l.025-.003-.562-.29c2.68 6.54 5.506 13.942 5.473 14.78 0 0 0-.025.02-.07-.286.775-1.226 1.03-3.515 1.588-.868.217-1.95.476-3.205.843-2.798.84-4.21 2.165-4.21 3.944 0 2.764 2.094 5.124 6.218 7.004 3.318 1.483 6.555 2.232 9.622 2.232 8.975 0 17.312-4.697 24.77-13.968 4.735-5.85 9.582-14.514 14.392-25.76l.322-.752-.813.083c-4.305.432-8.982 1.436-13.9 2.986-1.794.558-2.296.622-2.438.622-1.45 0-1.45-.565-1.45-.805 0-1.05 1.056-1.888 3.14-2.506 6.98-2.042 12.686-3.34 16.948-3.854l.262-.03.112-.24c11.746-24.98 25.773-40.925 42.86-48.757l.907-.416-.892-.453c-6.282-3.19-14.545-4.734-25.26-4.734-12.68 0-35.514 2.157-45.98 16.59-10.263 14.15-6.528 20.784-3.386 23.484 5.944 5.11 18.278 3.712 24.897-2.817 4.94-4.877 9.23-10.263 7.205-16.608-.48-1.517-1.745-2.33-3.57-2.285-4.044.094-9.71 4.143-10.644 7.604l.49-.354c-5.565-.266-11.7-.888-12.33-1.472.04.04.095.145.062.276z"/><path d="M88.378 371.55c3.746-11.03 6.982-19.387 9.62-24.845 5.348-10.904 9.82-16.657 14.95-19.23l-.508-.045c2.974 2.292 4.195 5.05 4.195 9.52 0 8.103-2.82 15.572-8.376 22.202-5.556 6.626-12.425 10.578-20.41 11.765l.528.633zm20.62-11.78c5.708-6.805 8.6-14.483 8.6-22.818 0-4.746-1.363-7.82-4.57-10.29l-.242-.183-.267.134c-5.335 2.674-9.938 8.56-15.384 19.668-2.652 5.495-5.91 13.89-9.675 24.954l-.25.75.778-.117c8.23-1.215 15.294-5.29 21.01-12.1z"/></g><path fill="#fff" d="M213.022 386.803c-1.482 1.745-3.674 5.514-6.51 11.192l.91.213v-.13l-.955-.087c-.168.908-.86 2.69-2.063 5.305-1.07 2.285-1.61 4.22-1.61 5.75 0 1.974 1.09 3.06 3.067 3.06 5.852 0 11.747-5.825 18.022-17.807l.325-.626-.704-.075c-4.596-.502-7.765-2.693-9.68-6.7l-.317-.668-.484.573zm10.01 7.052c-6.013 11.47-11.785 17.286-17.17 17.286-1.458 0-2.11-.64-2.11-2.093 0-1.386.514-3.184 1.528-5.34 1.252-2.73 1.948-4.537 2.132-5.537l-.955-.09v.135l.914.217c2.806-5.614 4.952-9.315 6.383-11l-.798-.102c2.046 4.267 5.56 6.705 10.447 7.237l-.37-.712zM224.645 376.798c-1.74 0-3.667.81-5.73 2.41-2.102 1.624-3.17 3.35-3.17 5.116 0 1.77.952 3.442 2.825 4.985 1.84 1.516 3.7 2.284 5.532 2.284.22 0 .487-.05.794-.154l.334-.108v-.475l-.483.48c1.063 0 1.933-1.368 2.82-4.45.63-2.286.937-4.05.937-5.387-.005-3.885-2.102-4.702-3.86-4.702zm2.885 4.708c0 1.23-.3 2.952-.9 5.128-1.02 3.565-1.748 3.742-1.887 3.742h-.48v.613l.33-.46c-.258.085-.408.104-.494.104-1.6 0-3.256-.697-4.92-2.07-1.64-1.346-2.47-2.77-2.47-4.237 0-1.46.938-2.92 2.793-4.356 1.884-1.467 3.614-2.21 5.143-2.21 1.24 0 2.884.386 2.884 3.746z"/><g fill="#fff"><path d="M121.962 388.735c-5.188 9.87-14.357 24.68-19.114 33.066 6.802 0 13.986-.98 14.855-1.846.865-.865 12.918-21.36 13.866-23.425 4.13-7.826 9.77-17.703 11.46-20.355 1.203-.775 3.162-1.405 4.285-1.405 3.566 0 2.81 4.858 2.81 4.858-.427 4.39-4.84 11.207-9.5 19.676-4.658 8.47-6.988 13.566-6.988 15.282 0 5.337 2.918 8 8.76 8 10.822 0 21.16-14.735 22.067-16.39-.858 1.45-1.525 6.555-1.525 8.532 0 2.146.707 4.023 2.127 5.61 1.42 1.596 3.214 2.55 5.36 2.387 7.296-.555 18.525-15.234 19.305-16.238-.647 2.382-.98 4.064-.98 6.29 0 6.183 3.396 9.277 10.19 9.277 4.903 0 10.45-3.442 16.643-10.327 4.473-5.016 8.346-10.582 11.61-16.698 6.56 0 11.706-4.095 12.14-4.256l-9.037 17.1c-.86 1.895-1.288 3.704-1.288 5.423 0 2.322.857 4.476 2.576 6.458 1.72 1.98 3.742 2.97 6.064 2.97 5.07 0 9.076-2.577 11.997-7.746 0 .786.23 3.116 1.293 4.74 1.64 2.492 3.914 3.005 5.806 3.005 6.2 0 10.71-2.578 13.548-7.747 0 .775.73 3.817 1.712 4.956 1.786 2.075 2.457 2.79 6.157 2.79 7.436 0 19.047-15.915 19.047-19.44 0-.516-.17-.988-.513-1.418h-.514c-.517.262-1.427 2.966-4.84 6.39-5.143 5.14-4.663 4.37-5.468 4.37-.524 0-.73-2.805.142-4.51 4.3-8.348 18.65-33.676 18.65-34.466 0-.78-12.245 1.195-12.245 1.195-2.202 4.146-7.93 14.005-11.42 20.496-6.477 12.043-11.226 17.317-13.545 17.317-.692 0-2.108-1.438-2.108-4.54 0-1.35 4.34-9.394 8.565-17.66 2.93-5.743 8.214-16.294 7.7-16.808-.636-.638-11.577 1.164-11.577 1.164-11.454 22.197-20.05 37.812-23.575 37.812-.892 0-2.353-1.61-2.353-4.51 0-4.99 16.942-33.19 16.388-34.467-.37-.83-12.076 1.197-12.076 1.197l-6.854 11.054c-.622 1.85-7.07 6.155-12.82 5.383 1.932-5.244 2.898-8.772 2.898-10.582 0-5.415-2.93-8.123-8.787-8.123-7.41 0-15.032 4.896-22.865 14.687-3.674 4.626-7.585 11.63-8.442 12.836-.802.81-3.397 3.476-6.293 6.368-3.75 3.76-6.442 6.35-7.87 6.068-1.805-.285-2.062-3.225-2.062-3.225.082-2.15.782-5.322 2.063-9.543 1.29-4.22 2.544-6.45 2.544-6.675 0 0 6.188-6.008 11.237-11.06 17.9-17.897 28.82-30.105 36.105-43.664 1.876-3.495 2.966-6.667 2.966-9.675 0-2.925-3.066-4.386-7.625-4.386-9.375 0-21.072 8.64-33.534 26.7-8.888 12.884-18.784 37.448-19.593 39.354-.663 1.574-4.03 9.133-4.353 10.01-.16.445-11.38 13.955-15.728 13.955-1.72 0-2.615-1.476-2.28-3.05.103-.504 1.523-3.774 6.007-12.285 4.48-8.514 6.724-14.795 6.724-18.837 0-2.326-.626-4.322-1.873-5.997-1.255-1.678-3.004-2.517-5.248-2.517-4.214 0-8.116.767-8.116.767l10.232-17.634 13.264-21.77c-4.39-.086-11.274.094-13.893 2.712-1.865 1.87-15.443 23.893-25.96 42.026m70.484-24.776c11.177-16.237 19.676-24.99 25.403-24.362 4.263.468-5.05 17.83-17.698 31.932-10.893 12.147-19.822 20.923-26.954 27.617 3.09-8.502 9.792-21.443 19.25-35.186zm7.114 58.66c-1.726 0-2.584-.857-2.584-2.58 0-1.468.52-3.81 1.57-6.05 1.22-2.66 7.086-14.16 8.547-15.884 1.978 4.13 6.02 6.45 10.064 6.967-6.128 11.7-11.99 17.548-17.596 17.548zM227.1 386.76c-.93 2.588-1.947 4.08-1.947 4.08-.295.062-7.666-1.005-8.92-6.52-.364-1.58.99-3.198 2.977-4.733 1.985-1.543 3.798-2.312 5.435-2.312 2.248 0 3.367 1.412 3.367 4.23.002 1.284-.14 3.09-.912 5.255z"/><path d="M121.538 388.51c-3.292 6.275-8.218 14.568-12.562 21.894-2.476 4.166-4.813 8.105-6.548 11.16l-.412.718h.836c6.105 0 14.072-.873 15.196-1.99.978-.973 13.08-21.642 13.963-23.563 4.15-7.852 9.8-17.733 11.433-20.302l-.142.15c1.102-.708 2.982-1.326 4.023-1.326.727 0 1.263.217 1.66.678 1.033 1.202.68 3.596.68 3.622-.332 3.397-3.093 8.267-6.587 14.424l-2.858 5.094c-4.746 8.622-7.053 13.7-7.053 15.514 0 5.63 3.112 8.487 9.244 8.487 10.872 0 21.29-14.46 22.484-16.64l-.836-.48c-.974 1.648-1.592 6.97-1.592 8.776 0 2.262.757 4.26 2.25 5.93 1.63 1.827 3.62 2.707 5.755 2.546 6.852-.524 16.736-12.66 19.602-16.365l.04-.063-.845-.42c-.64 2.383-.993 4.106-.993 6.417 0 6.478 3.59 9.758 10.68 9.758 5.015 0 10.734-3.524 16.993-10.484 4.477-5.023 8.405-10.67 11.68-16.8l-.428.26c5.75 0 10.4-3.038 11.925-4.038.173-.112.35-.23.4-.25l-.61-.664-9.038 17.095c-.902 1.974-1.348 3.866-1.348 5.648 0 2.438.91 4.716 2.7 6.78 1.805 2.075 3.966 3.132 6.423 3.132 5.236 0 9.417-2.686 12.417-7.99l-.9-.232c0 1.01.29 3.35 1.372 4.997 1.427 2.17 3.457 3.226 6.21 3.226 6.35 0 11.054-2.69 13.968-7.994l-.902-.232c0 .78.74 3.997 1.828 5.267 1.933 2.247 2.723 2.958 6.524 2.958 7.757 0 19.53-16.29 19.53-19.92 0-.625-.21-1.202-.622-1.72l-.146-.18h-.861l-.1.053c-.304.155-.514.51-.937 1.23-.68 1.135-1.81 3.034-4.027 5.25-4.123 4.13-4.502 4.305-4.798 4.264-.086-.015-.194-.03-.333-.03.116 0 .202.06.22.086-.23-.322-.377-2.48.354-3.896 1.965-3.813 5.984-11.09 9.872-18.13 7.35-13.31 8.832-16.102 8.832-16.555 0-.17-.07-.32-.198-.436-.577-.487-4.817-.1-12.604 1.154l-.235.04-.112.21c-1.03 1.934-2.87 5.192-4.82 8.646-2.226 3.933-4.742 8.394-6.605 11.85-6.77 12.598-11.297 17.066-13.12 17.066-.285 0-1.626-1.06-1.626-4.064 0-.948 2.992-6.75 5.892-12.353l2.626-5.09c8.442-16.53 7.985-16.994 7.614-17.365-.543-.543-4.577-.19-12 1.026l-.236.04-.116.214c-9.372 18.174-19.665 37.554-23.145 37.554-.56 0-1.874-1.37-1.874-4.027 0-2.847 6.17-14.35 10.672-22.744 5.153-9.618 5.95-11.288 5.678-11.917-.172-.382-.52-1.168-12.597.917l-.218.038-.108.184-6.858 11.053-.03.05-.02.052c-.527 1.573-6.71 5.81-12.3 5.057l.386.64c1.974-5.35 2.933-8.862 2.933-10.746 0-5.716-3.12-8.607-9.27-8.607-7.525 0-15.35 5-23.246 14.87-2.672 3.372-5.462 7.98-7.133 10.73-.614 1.01-1.098 1.804-1.326 2.13l.058-.064-1.31 1.33-4.983 5.034c-2.896 2.9-6.18 6.185-7.43 5.93-1.41-.217-1.68-2.768-1.684-2.79v.062c.08-2.07.75-5.158 2.043-9.428.906-2.98 1.802-4.974 2.24-5.93.254-.564.32-.714.32-.88l-.145.342c.063-.06 6.247-6.068 11.248-11.064 17.754-17.758 28.78-29.992 36.183-43.78 2.066-3.842 3.025-6.988 3.025-9.902 0-3.094-2.96-4.87-8.105-4.87-10.05 0-21.784 9.312-33.928 26.917-5.364 7.765-12.233 21.526-19.354 38.745l-.29.693-1.605 3.674c-1.195 2.722-2.547 5.793-2.75 6.355l.022-.052c-.6 1.015-11.36 13.687-15.305 13.687-.61 0-1.1-.217-1.44-.63-.38-.467-.515-1.138-.368-1.838.075-.36 1.333-3.363 5.967-12.162 4.497-8.547 6.774-14.964 6.774-19.065 0-2.416-.666-4.53-1.974-6.282-1.345-1.798-3.236-2.715-5.63-2.715-3.48 0-6.318.468-8.195.775l.498.72 10.233-17.635c-.008.004 13.26-21.762 13.26-21.762l.435-.72-.84-.014c-7.51-.146-12.172.787-14.235 2.854-2.02 2.022-16.25 25.242-26.044 42.13l.833.484c10.562-18.208 24.11-40.153 25.89-41.933 1.843-1.843 6.397-2.705 13.54-2.57l-.4-.73-13.264 21.774c-.008.004-10.233 17.643-10.233 17.643l-.54.92 1.042-.205c.04-.008 3.913-.76 8.03-.76 2.1 0 3.692.76 4.857 2.322 1.184 1.584 1.78 3.51 1.78 5.708 0 3.948-2.245 10.21-6.665 18.62-4.532 8.6-5.937 11.848-6.057 12.41-.206.99 0 1.95.562 2.64.518.638 1.297.99 2.188.99 4.532 0 15.896-13.473 16.186-14.27.195-.533 1.6-3.73 2.73-6.3l1.61-3.687.293-.703c7.095-17.16 13.935-30.853 19.253-38.57 11.79-17.087 23.56-26.496 33.142-26.496 2.146 0 7.146.38 7.146 3.904 0 2.75-.925 5.75-2.91 9.442-7.35 13.683-18.327 25.864-36.022 43.558-4.992 4.993-11.17 10.994-11.232 11.054l-.15.14v.205c0-.052.008-.082.008-.082-.02.064-.135.323-.247.574-.437.974-1.355 3.004-2.28 6.042-1.318 4.35-2 7.51-2.083 9.67v.06c.012.136.312 3.32 2.47 3.657 1.568.31 3.835-1.75 8.284-6.2l4.99-5.04 1.3-1.327.03-.022.022-.038c.25-.348.715-1.12 1.363-2.188 1.655-2.73 4.427-7.304 7.06-10.626 7.71-9.626 15.275-14.51 22.493-14.51 5.59 0 8.305 2.502 8.305 7.648 0 1.742-.963 5.244-2.87 10.41l-.205.56.596.08c6.09.824 12.663-3.682 13.342-5.705l-.05.105 6.86-11.057-.33.22c5.187-.898 10.974-1.64 11.682-1.32-.022-.012-.086-.064-.13-.155-.035-.067-.03-.112-.03-.116-.027.76-2.866 6.06-5.61 11.18-4.803 8.964-10.785 20.12-10.785 23.205 0 3.214 1.678 4.985 2.836 4.985 3.666 0 11.262-13.38 24-38.074l-.348.25c4.985-.816 10.552-1.5 11.24-1.24-.003 0-.037-.014-.078-.052-.086-.086-.108-.184-.108-.213.02.656-1.997 5.323-7.68 16.45l-2.62 5.09c-3.83 7.414-5.998 11.662-5.998 12.796 0 3.23 1.532 5.018 2.59 5.018 2.875 0 7.966-6.4 13.966-17.57 1.854-3.447 4.37-7.904 6.59-11.834 1.958-3.454 3.797-6.72 4.83-8.664l-.344.25c5.293-.853 11.19-1.583 11.89-1.325-.072-.026-.203-.153-.203-.348 0-.05.004-.075.007-.075-.194.723-4.727 8.93-8.727 16.167-3.892 7.044-7.91 14.33-9.88 18.154-.825 1.603-.788 4.07-.323 4.832.202.333.468.378.61.378.063 0 .12.01.188.022.768.112.95.14 5.618-4.532 2.304-2.3 3.47-4.27 4.173-5.442.22-.367.468-.787.57-.87 0 0-.01.01-.023.016l-.218.052h.514l-.378-.18c.28.345.415.712.415 1.12 0 3.382-11.446 18.96-18.57 18.96-3.536 0-4.11-.662-5.795-2.63-.876-1.02-1.596-3.95-1.596-4.636v-1.858l-.902 1.648c-2.77 5.042-7.064 7.496-13.12 7.496-2.405 0-4.17-.915-5.402-2.798-.996-1.51-1.21-3.738-1.21-4.47v-1.83l-.902 1.59c-2.824 4.98-6.716 7.504-11.582 7.504-2.194 0-4.063-.918-5.7-2.81-1.637-1.876-2.465-3.944-2.465-6.14 0-1.643.418-3.407 1.246-5.224-.008.026 9.027-17.076 9.027-17.076l.584-1.105-1.172.432c-.112.045-.226.116-.577.345-1.47.962-5.937 3.88-11.398 3.88h-.288l-.14.255c-3.235 6.057-7.12 11.64-11.547 16.608-6.067 6.742-11.544 10.163-16.274 10.163-6.543 0-9.712-2.877-9.712-8.795 0-2.203.334-3.87.963-6.166l-.842-.416-.053.06c-1.996 2.584-12.293 15.488-18.91 15.994-1.855.14-3.522-.615-4.965-2.23-1.325-1.49-2.007-3.27-2.007-5.29 0-1.915.678-6.957 1.46-8.287l-.835-.48c-1.16 2.12-11.233 16.153-21.643 16.153-5.573 0-8.28-2.46-8.28-7.518 0-1.124 1.2-4.648 6.933-15.054l2.854-5.083c3.55-6.262 6.353-11.206 6.705-14.78.015-.085.42-2.827-.902-4.374-.577-.674-1.383-1.012-2.387-1.012-1.235 0-3.27.66-4.547 1.483l-.085.056-.06.086c-1.642 2.58-7.313 12.498-11.48 20.39-1.053 2.273-13.017 22.51-13.784 23.31-.674.673-7.442 1.703-14.514 1.703l.42.727c1.727-3.05 4.06-6.985 6.536-11.154 4.35-7.33 9.28-15.638 12.59-21.93l-.884-.455z"/><path d="M199.145 353.234c11.574-16.83 19.743-24.73 24.957-24.156.266.03.42.146.517.397 1.187 3.116-7.29 18.21-18.522 30.733-11.773 13.125-21.002 22.032-26.928 27.59l.783.513c3.47-9.534 10.644-22.648 19.192-35.076zm-19.32 35.27c5.933-5.574 15.19-14.497 26.986-27.647 10.912-12.166 20.168-27.88 18.703-31.718-.23-.597-.686-.945-1.314-1.016-5.676-.622-13.89 7.184-25.854 24.567-8.585 12.49-15.807 25.685-19.306 35.3l.784.513zM205.86 411.138c-1.456 0-2.107-.64-2.107-2.094 0-1.19.4-3.442 1.527-5.84 1.293-2.828 7.087-14.147 8.48-15.784l-.806-.105c1.89 3.937 5.787 6.64 10.44 7.236l-.364-.703c-6.01 11.478-11.784 17.29-17.17 17.29zM223.52 393.6c-4.326-.554-7.948-3.052-9.694-6.7l-.318-.667-.483.562c-1.527 1.806-7.472 13.507-8.614 15.998-.982 2.094-1.615 4.543-1.615 6.244 0 1.974 1.09 3.06 3.067 3.06 5.854 0 11.746-5.824 18.02-17.806l.32-.613-.684-.076zM226.645 386.593c-.892 2.5-1.88 3.96-1.888 3.97l.292-.198.066-.01c-.074.003-7.214-.874-8.416-6.14-.273-1.188.64-2.577 2.806-4.248 1.884-1.468 3.614-2.206 5.143-2.206 1.24 0 2.887.39 2.887 3.747-.007 1.756-.297 3.42-.892 5.086zm1.854-5.087c0-3.892-2.095-4.708-3.855-4.708-1.74 0-3.667.81-5.73 2.41-2.49 1.924-3.518 3.632-3.154 5.228 1.327 5.813 9.047 6.974 9.496 6.877l.19-.042.105-.16c.043-.064 1.068-1.57 2.005-4.184.63-1.78.944-3.55.944-5.42z"/></g><g fill="#fff"><path d="M122.583 388.35c-1.127-.498-4.453 1.937-9.057 7.15-2.622 2.974-5.806 5.817-8.577 8.58-9.234 8.99-26.412 19.09-27.896 18.703-1.1-.288 2.046-9.394 2.046-9.394 5.465-1.59 9.7-3.353 12.724-5.286 3.858-2.52 7.98-4.787 12.938-9.656 9.23-9.068 22.736-20.886 24.792-22.942"/><path d="M122.775 387.908c-2.07-.914-7.413 4.783-9.607 7.274-1.77 2.01-3.82 3.978-5.8 5.877-.92.88-1.87 1.793-2.76 2.68-9.12 8.878-25.87 18.666-27.46 18.572 0 0 .013.004.027.004.09.022.146.09.157.116-.296-.664.926-5.128 2.226-8.885l-.315.304c5.465-1.595 9.788-3.393 12.844-5.344l1.985-1.27c3.383-2.15 6.88-4.364 11.03-8.447 6.068-5.957 14.014-13.137 19.276-17.886 2.79-2.52 4.81-4.345 5.52-5.057l-.68-.678c-.693.692-2.71 2.51-5.488 5.02-5.267 4.756-13.226 11.94-19.298 17.91-4.082 4.012-7.536 6.208-10.877 8.324l-1.993 1.273c-2.97 1.9-7.214 3.663-12.593 5.23l-.236.07-.083.236c-.864 2.5-2.808 8.446-2.164 9.65.094.187.26.317.45.362 1.86.483 19.398-10.11 28.343-18.818.887-.88 1.838-1.798 2.752-2.67 1.997-1.914 4.057-3.896 5.854-5.937 4.99-5.648 7.862-7.312 8.5-7.03l.39-.882z"/></g></svg>